<svg width="134" height="100" viewBox="0 0 134 100" fill="none" xmlns="http://www.w3.org/2000/svg">
<path d="M133.664 27.1855L116.646 27.1855C109.436 27.1855 102.521 24.3213 97.4228 19.223C92.3246 14.1248 89.4604 7.21003 89.4604 -3.8147e-06L106.478 -3.8147e-06C113.688 -3.8147e-06 120.603 2.86417 125.701 7.96243C130.8 13.0607 133.664 19.9754 133.664 27.1855Z" fill="#1B5734"/>
<path d="M44.2034 59.1224H27.1855C23.6154 59.1224 20.0803 58.4192 16.7821 57.053C13.4838 55.6868 10.4869 53.6844 7.96246 51.16C5.43806 48.6356 3.43559 45.6387 2.0694 42.3404C0.703201 39.0421 2.67029e-05 35.507 2.67029e-05 31.9369L17.0179 31.9369C24.2279 31.9369 31.1427 34.8011 36.2409 39.8994C41.3392 44.9976 44.2034 51.9124 44.2034 59.1224Z" fill="#1B5734"/>
<path d="M84.7089 27.1855L1.52588e-05 27.1855C1.52588e-05 19.9754 2.8642 13.0607 7.96246 7.96243C13.0607 2.86417 19.9754 -3.8147e-06 27.1855 -3.8147e-06L81.0281 -3.8147e-06C82.0074 -3.8147e-06 82.9465 0.388985 83.6389 1.08139C84.3313 1.7738 84.7203 2.71291 84.7203 3.69213V27.1855H84.7089Z" fill="#1B5734"/>
<path d="M84.7089 27.1855V100C77.5418 100 70.6683 97.1529 65.6003 92.085C60.5324 87.0171 57.6853 80.1435 57.6853 72.9764V27.1855H84.7089Z" fill="#1B5734"/>
</svg>
