<svg width="36" height="36" viewBox="0 0 36 36" fill="none" xmlns="http://www.w3.org/2000/svg">
<path d="M34.58 31.76L23.46 20.64C25.72 17.54 26.72 13.48 25.42 9.15999C24.06 4.69999 20.28 1.19999 15.72 0.279987C6.42003 -1.60001 -1.59997 6.43999 0.28003 15.72C1.20003 20.3 4.70003 24.08 9.16003 25.42C13.48 26.72 17.54 25.72 20.64 23.46L31.76 34.58C32.54 35.36 33.8 35.36 34.58 34.58C35.36 33.8 35.36 32.54 34.58 31.76ZM4.00003 13C4.00003 8.01999 8.02003 3.99999 13 3.99999C17.98 3.99999 22 8.01999 22 13C22 17.98 17.98 22 13 22C8.02003 22 4.00003 17.98 4.00003 13Z" fill="white"/>
</svg>
